# xmcd
#
# Track frame offsets:
#	183
#	12583
#	29710
#	43103
#	59365
#	74820
#	80585
#	93905
#	109355
#	120608
#	132690
#	146758
#	157903
#	171593
#	185435
#	195890
#	210630
#	223828
#
# Disc length: 3155
#
# Revision: 1
# Processed by: cddbd v1.5.1PL0 Copyright (c) Steve Scherf et al.
# Submitted via: VisiTrax 2.9.5.180 - For more info visit www.synapsa.com
# Normalized: r0:DSETVAR1
#
DISCID=1d0c5112
DTITLE=Various Artist - Peace in the valley
DYEAR=1995
DGENRE=
TTITLE0=Lee Greenwood - You'll never walk alone
TTITLE1=Etta James - Blowin' in the wind
TTITLE2=Lacy J Dalton - Life's railway to heaven
TTITLE3=Jim Ed Brown - Whispering hope
TTITLE4=Margo Smith - You light up my life
TTITLE5=Narvel Felts - Rock of ages
TTITLE6=Ray Price - What a friend we have in Jesus
TTITLE7=Melba Montgomery - No charge
TTITLE8=Jordanaires - Uncloudy day
TTITLE9=Ray Price - Peace in the valley
TTITLE10=Jordanaires - How great thou art
TTITLE11=Jeanne Pruett - Standing on the promises
TTITLE12=Johnny Russell - Baptism of Jesse taylor
TTITLE13=Johnny Darrell - Little delta church
TTITLE14=Don Gibson - There is power in the blood
TTITLE15=Connie Smith - Jesus is your ticket to heaven
TTITLE16=Charlie Louvin - The family who prayes
TTITLE17=Etta James - Swing low sweet chariot
EXTD=
EXTT0=
EXTT1=
EXTT2=
EXTT3=
EXTT4=
EXTT5=
EXTT6=
EXTT7=
EXTT8=
EXTT9=
EXTT10=
EXTT11=
EXTT12=
EXTT13=
EXTT14=
EXTT15=
EXTT16=
EXTT17=
PLAYORDER=
